<?xml version="1.0" encoding="utf-8"?>
<!-- Generator: Adobe Illustrator 16.0.0, SVG Export Plug-In . SVG Version: 6.00 Build 0)  -->
<!DOCTYPE svg PUBLIC "-//W3C//DTD SVG 1.1//EN" "http://www.w3.org/Graphics/SVG/1.1/DTD/svg11.dtd">
<svg version="1.1" xmlns="http://www.w3.org/2000/svg" xmlns:xlink="http://www.w3.org/1999/xlink" x="0px" y="0px" width="510px"
	 height="144px" viewBox="0 0 510 144" enable-background="new 0 0 510 144" xml:space="preserve">
<g id="Layer_1" display="none">
	<path display="inline" fill="#00A3E3" d="M44.03,41.706c-0.64,3.097-2.542,5.49-5.329,6.883c-2.017,0.942-5.409,1.459-9.978,1.459
		h-3.422l3.578-16.885h3.978c3.84,0,5.541,0.184,7.341,0.587C43.474,34.693,44.874,37.72,44.03,41.706 M50.89,24.796
		c-3.139-2.159-7.208-2.914-15.655-2.914H19.482L5.935,85.538h11.811l5.118-24.218h3.808c9.055,0,13.333-0.66,17.333-2.812
		c5.859-3.212,10.404-9.657,11.951-16.99C57.541,34.188,55.7,28.164,50.89,24.796"/>
	<path display="inline" fill="#00A3E3" d="M108.894,53.835c-2.584,12.231-13.517,21.457-25.595,21.457
		c-12.074,0-19.512-9.456-16.976-21.527c2.649-12.351,13.919-21.63,26.167-21.63C104.289,32.135,111.499,41.602,108.894,53.835
		 M95.094,20.762c-18.979,0-36.709,14.375-40.641,33.003c-3.895,18.361,7.832,32.936,26.534,32.936
		c18.509,0,35.876-14.438,39.825-33.047C124.673,35.475,113.253,20.762,95.094,20.762"/>
	<polygon display="inline" fill="#00A3E3" points="142.43,21.883 130.619,21.883 117.096,85.538 148.368,85.538 150.781,74.271 
		131.297,74.271 	"/>
	<polygon display="inline" fill="#00A3E3" points="151.921,4.935 138.374,68.607 159.547,68.607 161.956,57.296 152.553,57.296 
		163.696,4.935 	"/>
	<path display="inline" fill="#00A3E3" d="M255.087,53.835c-2.579,12.231-13.511,21.457-25.555,21.457
		c-12.085,0-19.544-9.456-17-21.527c2.637-12.351,13.911-21.63,26.165-21.63C250.5,32.135,257.688,41.602,255.087,53.835
		 M241.289,20.762c-18.969,0-36.674,14.375-40.645,33.003c-3.876,18.361,7.84,32.936,26.544,32.936
		c18.508,0,35.873-14.438,39.86-33.047C270.898,35.475,259.466,20.762,241.289,20.762"/>
	<path display="inline" fill="#FFFFFF" d="M278.057,70.789c0.271,4.089,1.812,5.824,5.178,5.824c2.974,0,5.685-1.994,6.234-4.708
		c0.33-1.528-0.154-2.855-1.373-3.723c-1.029-0.78-1.383-0.961-5.474-2.451c-8.904-3.216-11.88-7.224-10.382-14.262
		c1.732-8.278,10.172-14.701,19.128-14.701c4.795,0,8.909,1.904,11.25,5.3c1.763,2.627,2.217,5.068,1.534,9.126h-11.328
		c0.018-2.5-1.278-3.824-3.713-3.824c-2.514,0-4.819,1.736-5.303,4.099c-0.305,1.396,0.238,2.528,1.646,3.242
		c1.026,0.513,1.026,0.513,5.438,1.967c3.883,1.312,6.493,2.536,7.987,4.078c2.455,2.375,3.296,5.855,2.384,10.033
		c-1.947,9.208-11.048,16.429-20.703,16.429c-5.84,0-10.793-2.508-13.016-6.707c-1.367-2.592-1.659-5.03-1.15-9.722H278.057z"/>
	<path display="inline" fill="#FFFFFF" d="M369.809,61.834c-1.73,8.238,3.069,14.779,10.862,14.779
		c7.665,0,15.336-6.542,17.05-14.605c1.715-8.011-3.156-14.638-10.904-14.638C379.264,47.371,371.503,53.908,369.809,61.834
		 M409.341,62.352c-2.909,13.563-16.985,24.862-31.004,24.862c-14.069,0-23.166-11.299-20.21-25.206
		c2.926-13.846,16.841-25.242,30.857-25.242C403.51,36.767,412.342,47.964,409.341,62.352"/>
	<polygon display="inline" fill="#FFFFFF" points="445.832,21.81 442.39,37.869 440.152,48.444 432.161,86.111 443.718,86.111 
		451.71,48.444 458.699,48.444 460.916,37.869 453.981,37.869 457.387,21.81 	"/>
	<polygon display="inline" fill="#00A3E3" points="205.551,33.163 207.949,21.883 173.732,21.883 164.104,67.224 164.108,67.224 
		160.191,85.538 194.422,85.538 196.806,74.271 174.409,74.271 178.326,55.929 195.145,55.929 197.559,44.665 180.688,44.665 
		183.167,33.163 	"/>
	<path display="inline" fill="#FFFFFF" d="M412.737,56.895L412.737,56.895l-6.228,29.216h11.562l5.72-26.824
		c1.604-7.464,5.793-11.197,12.777-11.397l2.305-10.881C424.273,37.794,415.636,43.191,412.737,56.895"/>
	<path display="inline" fill="#FFFFFF" d="M344.395,62.089c-1.754,8.177-9.104,14.522-16.756,14.522
		c-8.193,0-12.939-6.232-11.14-14.722c1.748-8.244,9.19-14.519,17.207-14.519C341.5,47.371,346.16,53.742,344.395,62.089
		 M337.409,36.767c-14.464,0-28.403,9.156-31.681,24.666l-8.058,37.773h11.579l3.77-17.626c3.5,3.896,7.647,5.638,13.603,5.638
		c13.899,0,26.36-10.768,29.465-25.383C359.211,47.294,351.336,36.767,337.409,36.767"/>
	<path display="inline" fill="#FFFFFF" d="M463.028,74.55c3.582,0,6.607,2.841,6.607,6.56c0,3.779-3.025,6.627-6.607,6.627
		c-3.615,0-6.64-2.848-6.64-6.627C456.39,77.391,459.413,74.55,463.028,74.55 M463.028,86.762c3.049,0,5.402-2.431,5.402-5.652
		c0-3.158-2.354-5.57-5.402-5.57c-3.102,0-5.441,2.412-5.441,5.57C457.587,84.331,459.928,86.762,463.028,86.762 M460.454,77.288
		h2.979c1.84,0,2.688,0.713,2.688,2.2c0,1.39-0.863,1.971-2.017,2.088l2.196,3.408h-1.291l-2.082-3.323h-1.267v3.323h-1.206V77.288
		L460.454,77.288z M461.66,80.697h1.241c1.062,0,2.021-0.055,2.021-1.272c0-1.002-0.859-1.172-1.686-1.172h-1.576V80.697z"/>
	<path display="inline" fill="#FFFFFF" d="M11.786,115.031h6.198c2.895,0,4.743,0.492,5.807,1.507
		c1.157,1.086,1.605,3.036,1.167,5.104c-0.284,1.354-0.943,2.668-1.696,3.568c-0.535,0.566-1.017,0.9-2.122,1.503
		c1.609,0.375,2.28,0.75,2.932,1.574c0.888,1.127,1.189,2.896,0.798,4.731c-0.422,1.991-1.648,3.869-3.307,5.148
		c-1.749,1.312-3.867,1.91-6.647,1.91H6.464L11.786,115.031z M14.29,136.139c1.579,0,2.669-0.189,3.562-0.679
		c1.013-0.524,1.809-1.61,2.055-2.778c0.247-1.162-0.055-2.213-0.872-2.772c-0.748-0.566-1.504-0.716-3.534-0.716H13.66
		l-1.477,6.945H14.29z M15.845,125.475c2.515,0,4.031-1.131,4.486-3.268c0.448-2.104-0.59-3.23-3.033-3.23h-1.466l-1.381,6.498
		H15.845z"/>
	<path display="inline" fill="#FFFFFF" d="M65.213,127.577c-1.566,7.358-8.68,13.067-16.308,13.067
		c-7.514,0-12.039-5.742-10.444-13.252c1.518-7.137,8.758-12.924,16.196-12.924C62.136,114.471,66.776,120.217,65.213,127.577
		 M43.48,127.464c-1.03,4.847,1.868,8.716,6.527,8.716c4.583,0,9.165-3.869,10.176-8.643c1.014-4.77-1.928-8.602-6.549-8.602
		C49.089,118.938,44.472,122.805,43.48,127.464"/>
	<path display="inline" fill="#FFFFFF" d="M104.62,127.577c-1.563,7.358-8.676,13.067-16.301,13.067
		c-7.517,0-12.046-5.742-10.449-13.252c1.517-7.137,8.76-12.924,16.197-12.924C101.545,114.471,106.187,120.217,104.62,127.577
		 M82.892,127.464c-1.03,4.847,1.865,8.716,6.525,8.716c4.583,0,9.163-3.869,10.176-8.643c1.013-4.77-1.928-8.602-6.55-8.602
		C88.497,118.938,83.881,122.805,82.892,127.464"/>
	<path display="inline" fill="#FFFFFF" d="M132.22,120.742c-0.977-1.426-2.051-2.028-3.63-2.028c-1.993,0-3.795,1.24-4.123,2.778
		c-0.289,1.354,0.424,2.062,3.125,3.158c2.564,1.01,3.538,1.574,4.462,2.512c1.203,1.238,1.57,3.044,1.098,5.258
		c-1.046,4.922-5.284,8.266-10.471,8.266c-3.606,0-6.029-1.506-7.591-4.772l3.804-3.041c0.674,2.142,2.293,3.34,4.551,3.34
		c2.215,0,4.186-1.498,4.617-3.528c0.216-1.015-0.05-1.879-0.817-2.513c-0.408-0.379-1.27-0.755-3.174-1.507
		c-4.164-1.609-5.427-3.452-4.727-6.76c0.894-4.202,4.854-7.284,9.366-7.284c2.742,0,5.06,0.94,6.771,2.782L132.22,120.742z"/>
	<polygon display="inline" fill="#FFFFFF" points="148.505,140.079 152.927,119.275 147.33,119.275 148.231,115.036 
		164.351,115.036 163.45,119.275 157.812,119.275 153.39,140.079 	"/>
	<polygon display="inline" fill="#FFFFFF" points="192.6,115.031 198.387,115.031 201.946,123.745 209.094,115.031 214.918,115.031 
		203.243,128.592 200.802,140.079 195.916,140.079 198.358,128.592 	"/>
	<path display="inline" fill="#FFFFFF" d="M248.204,127.577c-1.567,7.358-8.68,13.067-16.307,13.067
		c-7.515,0-12.04-5.742-10.445-13.252c1.519-7.137,8.759-12.924,16.197-12.924C245.127,114.471,249.769,120.217,248.204,127.577
		 M226.471,127.464c-1.029,4.847,1.868,8.716,6.528,8.716c4.583,0,9.162-3.869,10.175-8.643c1.014-4.77-1.928-8.602-6.55-8.602
		C232.078,118.938,227.462,122.805,226.471,127.464"/>
	<path display="inline" fill="#FFFFFF" d="M266.6,129.379c-0.541,2.553-0.562,3.379-0.16,4.465c0.525,1.436,2.022,2.331,3.902,2.331
		c1.881,0,3.76-0.896,4.893-2.331c0.871-1.086,1.192-1.912,1.736-4.465l3.049-14.343h4.887l-3.256,15.319
		c-0.623,2.932-1.629,4.996-3.265,6.684c-2.204,2.252-5.575,3.605-8.995,3.605c-3.416,0-6.209-1.354-7.461-3.605
		c-0.919-1.688-1.045-3.752-0.421-6.684l3.257-15.319h4.887L266.6,129.379z"/>
	<path display="inline" fill="#FFFFFF" d="M313.016,140.079h-6.013l-4.623-10.062h-0.641l-2.138,10.062h-4.883l5.322-25.048h7.254
		c2.778,0,4.868,0.602,6.01,1.765c1.27,1.28,1.754,3.421,1.281,5.638c-0.477,2.254-1.779,4.316-3.427,5.521
		c-1.152,0.823-2.147,1.272-3.791,1.579L313.016,140.079z M303.902,126.561c3.08,0,5.06-1.35,5.587-3.828
		c0.526-2.479-0.815-3.756-3.897-3.756h-1.504l-1.611,7.584H303.902z"/>
	<path display="inline" fill="#FFFFFF" d="M349.818,115.031h6.199c2.895,0,4.741,0.492,5.809,1.507
		c1.154,1.086,1.604,3.036,1.164,5.104c-0.284,1.354-0.942,2.668-1.697,3.568c-0.533,0.566-1.014,0.9-2.12,1.503
		c1.609,0.375,2.279,0.75,2.933,1.574c0.886,1.127,1.19,2.896,0.797,4.731c-0.424,1.991-1.647,3.869-3.31,5.148
		c-1.745,1.312-3.864,1.91-6.645,1.91h-8.454L349.818,115.031z M352.32,136.139c1.58,0,2.671-0.189,3.564-0.679
		c1.01-0.524,1.807-1.61,2.053-2.778c0.248-1.162-0.054-2.213-0.873-2.772c-0.743-0.566-1.502-0.716-3.531-0.716h-1.842
		l-1.477,6.945H352.32z M353.875,125.475c2.518,0,4.031-1.131,4.486-3.268c0.449-2.104-0.586-3.23-3.03-3.23h-1.466l-1.383,6.498
		H353.875z"/>
	<polygon display="inline" fill="#FFFFFF" points="384.605,119.275 383.428,124.835 392.066,124.835 391.164,129.075 
		382.521,129.075 381.087,135.839 390.07,135.839 389.165,140.083 375.3,140.083 380.624,115.031 394.489,115.031 393.589,119.275 	
		"/>
	<path display="inline" fill="#FFFFFF" d="M419.648,120.742c-0.977-1.426-2.053-2.028-3.63-2.028c-1.992,0-3.795,1.24-4.122,2.778
		c-0.288,1.354,0.424,2.062,3.128,3.158c2.562,1.01,3.535,1.574,4.46,2.512c1.201,1.238,1.571,3.044,1.099,5.258
		c-1.046,4.922-5.284,8.266-10.469,8.266c-3.607,0-6.031-1.506-7.593-4.772l3.803-3.041c0.672,2.142,2.294,3.34,4.55,3.34
		c2.216,0,4.187-1.498,4.618-3.528c0.217-1.015-0.052-1.879-0.817-2.513c-0.407-0.379-1.27-0.755-3.172-1.507
		c-4.167-1.609-5.429-3.452-4.728-6.76c0.894-4.202,4.853-7.284,9.364-7.284c2.74,0,5.059,0.94,6.771,2.782L419.648,120.742z"/>
	<polygon display="inline" fill="#FFFFFF" points="435.934,140.079 440.356,119.275 434.759,119.275 435.658,115.036 
		451.778,115.036 450.878,119.275 445.239,119.275 440.816,140.079 	"/>
</g>
<g id="Layer_2">
	<g>
		<path fill="#00A3E3" d="M42.816,42.593c-0.68,3.238-2.665,5.762-5.591,7.227c-2.123,0.987-5.672,1.517-10.486,1.517h-3.591
			l3.765-17.724h4.161c4.036,0,5.831,0.184,7.708,0.629C42.217,35.22,43.699,38.412,42.816,42.593 M50.029,24.837
			c-3.32-2.263-7.577-3.058-16.454-3.058H17.042L2.823,88.604h12.396l5.392-25.442h3.99c9.505,0,13.986-0.682,18.183-2.943
			c6.154-3.356,10.929-10.126,12.543-17.825C56.985,34.703,55.06,28.381,50.029,24.837"/>
		<path fill="#00A3E3" d="M110.897,55.308c-2.719,12.857-14.19,22.534-26.872,22.534c-12.66,0-20.471-9.93-17.808-22.59
			c2.78-12.952,14.602-22.712,27.457-22.712C106.073,32.539,113.644,42.484,110.897,55.308 M96.411,20.595
			c-19.919,0-38.514,15.095-42.668,34.657c-4.089,19.266,8.228,34.552,27.863,34.552c19.418,0,37.659-15.128,41.808-34.66
			C127.465,36.045,115.471,20.595,96.411,20.595"/>
		<polygon fill="#00A3E3" points="146.106,21.78 133.715,21.78 119.511,88.604 152.331,88.604 154.874,76.783 134.417,76.783 		"/>
		<polygon fill="#00A3E3" points="156.05,4 141.847,70.829 164.066,70.829 166.588,58.953 156.731,58.953 168.427,4 		"/>
		<path fill="#00A3E3" d="M264.354,55.308c-2.711,12.857-14.191,22.534-26.831,22.534c-12.676,0-20.507-9.93-17.833-22.59
			c2.771-12.952,14.605-22.712,27.455-22.712C259.541,32.539,267.088,42.484,264.354,55.308 M249.879,20.595
			c-19.927,0-38.496,15.095-42.668,34.657c-4.074,19.266,8.225,34.552,27.857,34.552c19.431,0,37.67-15.128,41.839-34.66
			C280.959,36.045,268.958,20.595,249.879,20.595"/>
		<path fill="#FFFFFF" d="M288.468,73.117c0.276,4.292,1.894,6.116,5.448,6.116c3.104,0,5.944-2.103,6.531-4.952
			c0.348-1.599-0.168-3.003-1.442-3.904c-1.093-0.823-1.446-1.002-5.754-2.562c-9.347-3.359-12.461-7.596-10.875-14.982
			c1.811-8.681,10.666-15.429,20.073-15.429c5.022,0,9.329,1.994,11.8,5.563c1.858,2.751,2.322,5.315,1.611,9.583h-11.893
			c0.02-2.63-1.346-4.005-3.888-4.005c-2.655,0-5.06,1.811-5.576,4.287c-0.312,1.468,0.25,2.65,1.733,3.402
			c1.076,0.533,1.076,0.533,5.705,2.071c4.071,1.382,6.812,2.66,8.399,4.289c2.567,2.476,3.438,6.138,2.484,10.522
			c-2.045,9.661-11.611,17.237-21.733,17.237c-6.128,0-11.311-2.619-13.67-7.024c-1.421-2.732-1.724-5.284-1.19-10.213H288.468z"/>
		<path fill="#FFFFFF" d="M384.779,63.715c-1.82,8.659,3.224,15.519,11.408,15.519c8.037,0,16.099-6.86,17.89-15.336
			c1.806-8.415-3.305-15.352-11.443-15.352C394.698,48.545,386.552,55.389,384.779,63.715 M426.272,64.263
			c-3.055,14.237-17.823,26.091-32.54,26.091c-14.782,0-24.313-11.854-21.215-26.458c3.075-14.525,17.689-26.493,32.383-26.493
			C420.159,37.404,429.428,49.16,426.272,64.263"/>
		<polygon fill="#FFFFFF" points="464.582,21.69 460.959,38.576 458.622,49.656 450.223,89.194 462.356,89.194 470.771,49.656 
			478.07,49.656 480.413,38.576 473.133,38.576 476.71,21.69 		"/>
		<polygon fill="#00A3E3" points="212.369,33.613 214.879,21.78 178.961,21.78 168.839,69.381 168.859,69.381 164.752,88.604 
			200.676,88.604 203.179,76.783 179.672,76.783 183.781,57.53 201.434,57.53 203.967,45.681 186.274,45.681 188.86,33.613 		"/>
		<path fill="#FFFFFF" d="M429.837,58.533L429.837,58.533l-6.526,30.662h12.137l5.99-28.142c1.68-7.833,6.074-11.765,13.42-11.97
			l2.414-11.418C441.946,38.483,432.891,44.151,429.837,58.533"/>
		<path fill="#FFFFFF" d="M358.099,63.999c-1.842,8.574-9.541,15.235-17.603,15.235c-8.583,0-13.565-6.551-11.688-15.436
			c1.84-8.673,9.653-15.252,18.067-15.252C355.07,48.545,359.956,55.21,358.099,63.999 M350.769,37.404
			c-15.172,0-29.812,9.607-33.256,25.894l-8.461,39.655h12.164l3.939-18.507c3.689,4.102,8.041,5.909,14.293,5.909
			c14.584,0,27.665-11.293,30.918-26.64C373.645,48.45,365.389,37.404,350.769,37.404"/>
		<g>
			<g>
				<path fill="#FFFFFF" d="M482.659,72.048c4.993,0,9.177,3.942,9.177,9.107c0,5.268-4.184,9.199-9.177,9.199
					c-5.009,0-9.229-3.932-9.229-9.199C473.43,75.99,477.65,72.048,482.659,72.048z M482.659,89.014c4.24,0,7.515-3.381,7.515-7.858
					c0-4.384-3.274-7.753-7.515-7.753c-4.304,0-7.557,3.369-7.557,7.753C475.103,85.633,478.355,89.014,482.659,89.014z
					 M479.09,75.852h4.142c2.542,0,3.738,0.997,3.738,3.048c0,1.935-1.217,2.742-2.812,2.915l3.047,4.728h-1.778l-2.906-4.608h-1.76
					v4.608h-1.671V75.852z M480.761,80.586h1.733c1.474,0,2.814-0.069,2.814-1.758c0-1.413-1.218-1.636-2.348-1.636h-2.2V80.586z"/>
			</g>
		</g>
		<g>
			<g>
				<path fill="#FFFFFF" d="M7.52,114.54h5.424c4.136,0,6.344,1.631,5.4,6.081c-0.343,1.597-1.294,3.434-2.88,4.328
					c2.537,0.467,3.158,3.139,2.634,5.593c-0.936,4.39-4.438,6.34-8.484,6.34H2.768L7.52,114.54z M7.862,133.388h0.932
					c2.333,0,4.404-0.297,5.02-3.195c0.625-2.9-1.726-3.025-3.916-3.025H9.192L7.862,133.388z M9.883,123.846h0.55
					c2.121,0,3.292-0.631,3.783-2.935c0.491-2.274-0.69-2.865-2.521-2.865h-0.568L9.883,123.846z"/>
				<path fill="#FFFFFF" d="M27.941,136.882H23.59l4.745-22.342h4.353L27.941,136.882z"/>
				<path fill="#FFFFFF" d="M42.816,136.882h-4.363l3.944-18.548H37.9l0.798-3.794h13.367l-0.819,3.794h-4.491L42.816,136.882z"/>
				<path fill="#FFFFFF" d="M57.708,136.882h-4.364l4.75-22.342h4.36L57.708,136.882z"/>
				<path fill="#FFFFFF" d="M86.609,118.334l-1.043,4.917h6.312l-0.813,3.793h-6.311l-2.095,9.838H78.31l4.751-22.342h11.083
					l-0.809,3.794H86.609z"/>
				<path fill="#FFFFFF" d="M100.83,136.882h-4.367l4.75-22.342h4.363L100.83,136.882z"/>
				<path fill="#FFFFFF" d="M115.69,136.882h-4.364l3.96-18.548h-4.512l0.813-3.794h13.356l-0.809,3.794h-4.491L115.69,136.882z"/>
				<path fill="#FFFFFF" d="M144.397,133.091h6.154l-0.803,3.791h-10.517l4.752-22.342h4.353L144.397,133.091z"/>
				<path fill="#FFFFFF" d="M161.136,132.175l-2.819,4.707h-4.596l13.566-22.925h3.378l3.606,22.925h-4.649l-0.716-4.707H161.136z
					 M167.389,120.505h-0.07l-4.171,8.122h5.292L167.389,120.505z"/>
				<path fill="#FFFFFF" d="M186.07,129.593h0.06l8.164-15.053h4.683l-13.542,22.931h-2.564l-3.652-22.931h4.686L186.07,129.593z"/>
				<path fill="#FFFFFF" d="M209.706,137.471c-6.8,0-9.944-5.217-8.539-11.796c1.408-6.634,6.876-11.718,13.538-11.718
					c6.672,0,9.97,5.084,8.554,11.718C221.865,132.254,216.521,137.471,209.706,137.471z M213.793,118.245
					c-4.112,0-7.315,3.648-8.087,7.252c-0.732,3.454,0.098,7.688,4.915,7.688c4.825,0,7.446-4.233,8.175-7.688
					C219.559,121.894,217.913,118.245,213.793,118.245z"/>
				<path fill="#FFFFFF" d="M237.026,129.593h0.072l8.165-15.053h4.679l-13.544,22.931h-2.553l-3.662-22.931h4.68L237.026,129.593z"
					/>
				<path fill="#FFFFFF" d="M265.037,119.461c-0.586-1.127-1.507-1.835-2.955-1.835c-1.394,0-2.951,1.066-3.262,2.51
					c-0.796,3.764,8.389,2.203,6.807,9.703c-0.953,4.47-4.422,7.632-8.979,7.632c-3.084,0-4.96-1.763-5.951-4.357l3.407-2.744
					c0.224,1.721,1.475,3.256,3.335,3.256c1.779,0,3.2-1.504,3.56-3.229c0.486-2.309-1.504-2.962-3.11-3.643
					c-2.609-1.191-4.414-2.629-3.677-6.104c0.79-3.707,4.178-6.693,7.938-6.693c1.99,0,4.528,0.981,5.574,2.485L265.037,119.461z"/>
				<path fill="#FFFFFF" d="M286.907,114.54h5.356l-10.666,10.323l6.394,12.019h-5.6l-5.003-10.043h-0.066l-2.123,10.043h-4.36
					l4.749-22.342h4.348l-1.99,9.422h0.057L286.907,114.54z"/>
				<path fill="#FFFFFF" d="M297.998,136.882h-4.359l4.748-22.342h4.349L297.998,136.882z"/>
				<path fill="#FFFFFF" d="M328.67,129.298c-0.445,2.063-0.876,3.841-2.502,5.661c-1.524,1.688-3.534,2.512-5.55,2.512
					c-1.623,0-3.084-0.946-3.923-2.092l3.447-3.204c0.081,0.65,0.67,1.45,1.386,1.45c2.129,0,2.64-3.61,2.946-5.075l2.979-14.01
					h4.347L328.67,129.298z"/>
				<path fill="#FFFFFF" d="M342.865,118.334l-1.048,4.917h6.94l-0.808,3.793h-6.942l-1.268,6.047h7.188l-0.81,3.791h-11.55
					l4.742-22.342h11.559l-0.791,3.794H342.865z"/>
				<path fill="#FFFFFF" d="M370.819,136.882h-4.352l4.747-22.342h5.929c4.67,0,7.329,1.877,6.251,6.938
					c-1.004,4.734-4.072,7.053-8.646,7.053h-2.152L370.819,136.882z M373.368,124.91h0.885c2.578,0,4.097-0.555,4.717-3.455
					c0.608-2.885-0.978-3.294-3.396-3.294h-0.772L373.368,124.91z"/>
				<path fill="#FFFFFF" d="M396.401,137.471c-6.812,0-9.943-5.217-8.546-11.796c1.417-6.634,6.885-11.718,13.552-11.718
					c6.658,0,9.958,5.084,8.551,11.718C408.552,132.254,403.222,137.471,396.401,137.471z M400.486,118.245
					c-4.119,0-7.312,3.648-8.077,7.252c-0.749,3.454,0.081,7.688,4.895,7.688c4.84,0,7.464-4.233,8.2-7.688
					C406.26,121.894,404.598,118.245,400.486,118.245z"/>
				<path fill="#FFFFFF" d="M428.364,119.461c-0.589-1.127-1.505-1.835-2.951-1.835c-1.397,0-2.957,1.066-3.269,2.51
					c-0.798,3.764,8.389,2.203,6.791,9.703c-0.934,4.47-4.398,7.632-8.956,7.632c-3.096,0-4.962-1.763-5.96-4.357l3.396-2.744
					c0.231,1.721,1.484,3.256,3.356,3.256c1.77,0,3.187-1.504,3.546-3.229c0.495-2.309-1.494-2.962-3.095-3.643
					c-2.635-1.191-4.431-2.629-3.679-6.104c0.783-3.707,4.165-6.693,7.929-6.693c1.984,0,4.526,0.981,5.571,2.485L428.364,119.461z"
					/>
				<path fill="#FFFFFF" d="M439.73,132.175l-2.845,4.707h-4.593l13.591-22.925h3.37l3.603,22.925h-4.649l-0.716-4.707H439.73z
					 M445.977,120.505h-0.057l-4.194,8.122h5.306L445.977,120.505z"/>
				<path fill="#FFFFFF" d="M468.489,137.471c-6.819,0-9.94-5.217-8.553-11.796c1.423-6.634,6.891-11.718,13.55-11.718
					c6.654,0,9.965,5.084,8.548,11.718C480.638,132.254,475.304,137.471,468.489,137.471z M472.571,118.245
					c-4.118,0-7.314,3.648-8.083,7.252c-0.731,3.454,0.082,7.688,4.917,7.688c4.823,0,7.438-4.233,8.169-7.688
					C478.347,121.894,476.673,118.245,472.571,118.245z"/>
			</g>
		</g>
	</g>
</g>
</svg>
